<svg width="33" height="46" viewBox="0 0 33 46" fill="none" xmlns="http://www.w3.org/2000/svg">
<path d="M0 0H33V46L16.5 32L0 46V0Z" fill="#FF5757"/>
<path d="M7.8 20L5.448 12.98H5.4C5.408 13.14 5.42 13.368 5.436 13.664C5.452 13.952 5.464 14.268 5.472 14.612C5.488 14.948 5.496 15.264 5.496 15.56V20H4.116V11.432H6.252L8.508 18.164H8.556L10.908 11.432H13.044V20H11.58V15.488C11.58 15.216 11.584 14.92 11.592 14.6C11.608 14.272 11.62 13.964 11.628 13.676C11.644 13.38 11.656 13.152 11.664 12.992H11.616L9.168 20H7.8ZM14.9005 19.232C14.9005 18.896 14.9885 18.66 15.1645 18.524C15.3405 18.38 15.5565 18.308 15.8125 18.308C16.0685 18.308 16.2845 18.376 16.4605 18.512C16.6445 18.648 16.7365 18.888 16.7365 19.232C16.7365 19.56 16.6445 19.796 16.4605 19.94C16.2845 20.084 16.0685 20.156 15.8125 20.156C15.5565 20.156 15.3405 20.084 15.1645 19.94C14.9885 19.796 14.9005 19.56 14.9005 19.232ZM23.5921 17.66C23.5921 18.164 23.4681 18.6 23.2201 18.968C22.9721 19.336 22.6121 19.62 22.1401 19.82C21.6761 20.02 21.1201 20.12 20.4721 20.12C20.1601 20.12 19.8601 20.1 19.5721 20.06C19.2921 20.028 19.0241 19.976 18.7681 19.904C18.5201 19.832 18.2881 19.744 18.0721 19.64V18.2C18.4321 18.36 18.8281 18.508 19.2601 18.644C19.6921 18.772 20.1321 18.836 20.5801 18.836C20.9241 18.836 21.2041 18.792 21.4201 18.704C21.6441 18.608 21.8081 18.48 21.9121 18.32C22.0161 18.152 22.0681 17.96 22.0681 17.744C22.0681 17.504 22.0001 17.3 21.8641 17.132C21.7281 16.964 21.5281 16.808 21.2641 16.664C21.0001 16.52 20.6721 16.368 20.2801 16.208C20.0161 16.096 19.7561 15.972 19.5001 15.836C19.2521 15.692 19.0281 15.52 18.8281 15.32C18.6281 15.12 18.4681 14.884 18.3481 14.612C18.2281 14.34 18.1681 14.02 18.1681 13.652C18.1681 13.164 18.2841 12.744 18.5161 12.392C18.7561 12.04 19.0881 11.772 19.5121 11.588C19.9441 11.404 20.4441 11.312 21.0121 11.312C21.4681 11.312 21.8961 11.36 22.2961 11.456C22.6961 11.552 23.0921 11.688 23.4841 11.864L22.9921 13.1C22.6401 12.948 22.3001 12.828 21.9721 12.74C21.6441 12.652 21.3081 12.608 20.9641 12.608C20.6921 12.608 20.4601 12.652 20.2681 12.74C20.0761 12.82 19.9321 12.936 19.8361 13.088C19.7401 13.24 19.6921 13.416 19.6921 13.616C19.6921 13.848 19.7521 14.044 19.8721 14.204C19.9921 14.364 20.1761 14.516 20.4241 14.66C20.6801 14.796 21.0081 14.952 21.4081 15.128C21.8721 15.328 22.2641 15.536 22.5841 15.752C22.9041 15.968 23.1521 16.228 23.3281 16.532C23.5041 16.836 23.5921 17.212 23.5921 17.66ZM27.6938 20.12C27.0778 20.12 26.5418 20.004 26.0858 19.772C25.6378 19.532 25.2898 19.168 25.0418 18.68C24.8018 18.184 24.6818 17.552 24.6818 16.784C24.6818 15.984 24.8138 15.336 25.0778 14.84C25.3498 14.336 25.7218 13.968 26.1938 13.736C26.6658 13.496 27.2058 13.376 27.8138 13.376C28.2218 13.376 28.5858 13.416 28.9058 13.496C29.2258 13.576 29.4978 13.672 29.7218 13.784L29.2778 14.972C29.0298 14.876 28.7818 14.796 28.5338 14.732C28.2858 14.66 28.0458 14.624 27.8138 14.624C27.4538 14.624 27.1538 14.704 26.9138 14.864C26.6818 15.024 26.5098 15.264 26.3978 15.584C26.2858 15.896 26.2298 16.292 26.2298 16.772C26.2298 17.236 26.2858 17.624 26.3978 17.936C26.5178 18.248 26.6938 18.484 26.9258 18.644C27.1578 18.796 27.4458 18.872 27.7898 18.872C28.1578 18.872 28.4818 18.828 28.7618 18.74C29.0418 18.652 29.3058 18.532 29.5538 18.38V19.688C29.3058 19.84 29.0378 19.948 28.7498 20.012C28.4698 20.084 28.1178 20.12 27.6938 20.12Z" fill="white"/>
</svg>
